<?xml version="1.0" standalone="no"?>
<!DOCTYPE svg PUBLIC "-//W3C//DTD SVG 20010904//EN"
 "http://www.w3.org/TR/2001/REC-SVG-20010904/DTD/svg10.dtd">
<svg version="1.0" xmlns="http://www.w3.org/2000/svg"
 width="5000.000000pt" height="5000.000000pt" viewBox="0 0 5000.000000 5000.000000"
 preserveAspectRatio="xMidYMid meet">

<g transform="translate(0.000000,5000.000000) scale(0.100000,-0.100000)"
fill="#000000" stroke="none">
<path d="M7990 30179 c-1150 -58 -2133 -317 -2920 -768 -1243 -713 -1959
-1890 -2019 -3316 -64 -1522 612 -2857 1856 -3669 720 -469 1621 -766 2643
-870 332 -34 484 -41 920 -41 433 1 569 7 905 41 1024 103 1926 399 2648 870
547 357 1005 836 1314 1374 392 681 574 1453 542 2290 -43 1116 -505 2107
-1309 2815 -970 852 -2392 1293 -4144 1284 -155 -1 -351 -6 -436 -10z m795
-1909 c587 -40 1044 -175 1406 -418 376 -253 629 -627 754 -1117 69 -268 101
-601 92 -945 -22 -772 -226 -1333 -631 -1733 -350 -346 -832 -544 -1506 -619
-153 -17 -717 -17 -870 0 -474 53 -844 164 -1143 342 -565 336 -877 871 -974
1670 -27 225 -25 709 5 930 80 593 279 1008 635 1328 208 186 510 346 828 436
396 113 909 159 1404 126z"/>
<path d="M20270 28480 c-1278 -92 -2481 -631 -3370 -1507 -85 -84 -158 -152
-161 -151 -19 8 -168 114 -169 120 0 4 24 45 54 90 149 230 165 326 166 961
l0 327 -1265 0 -1265 0 0 -3180 c0 -1749 -3 -3180 -7 -3180 -5 0 -114 11 -243
25 -462 47 -666 59 -1065 59 -642 1 -1040 -58 -1458 -215 -1020 -382 -1674
-1390 -1819 -2799 -17 -164 -17 -696 0 -860 110 -1066 516 -1918 1154 -2417
283 -222 655 -404 1037 -509 1058 -290 2488 -190 4152 290 288 83 370 108 366
113 -2 2 -69 -12 -148 -31 -925 -223 -1699 -228 -2233 -16 -525 210 -834 625
-948 1275 -28 164 -36 543 -14 735 118 1033 684 1833 1576 2230 573 255 1358
403 2390 451 292 13 1281 7 1585 -10 831 -48 1546 -116 2420 -232 969 -128
2215 -345 3219 -560 127 -27 234 -49 238 -49 5 0 8 -7 8 -15 0 -15 1 -15 195
-64 1520 -381 3288 -589 4500 -531 1713 82 2869 543 3522 1402 370 489 560
1076 593 1836 6 136 10 1439 10 3240 l0 3012 -1265 0 -1265 0 -3 -1637 c-3
-1835 3 -1695 -77 -1934 -179 -541 -655 -966 -1313 -1174 -475 -151 -1052
-154 -1470 -8 -211 73 -362 166 -513 317 -306 305 -454 734 -494 1436 -5 101
-10 771 -10 1588 l0 1412 -1255 0 -1255 0 0 -1763 c0 -1807 2 -1892 41 -2182
54 -400 151 -730 314 -1060 260 -531 643 -915 1175 -1179 420 -209 878 -320
1465 -357 772 -48 1549 110 2244 456 457 228 843 523 1148 878 l41 48 91 -67
c53 -39 88 -71 84 -78 -3 -6 -15 -23 -25 -38 -33 -48 -89 -152 -115 -212 -55
-130 -64 -194 -73 -471 -9 -281 -22 -380 -70 -535 -110 -356 -349 -618 -733
-800 -647 -307 -1661 -349 -3037 -125 -559 92 -1216 240 -1797 405 -116 33
-216 60 -221 60 -6 0 -12 -10 -14 -22 -4 -27 -12 -29 -368 -52 -747 -50 -1194
-66 -1990 -73 -2064 -17 -3701 122 -6480 551 l-415 64 578 1 577 1 0 1604 c0
1760 -3 1681 60 1868 40 118 115 264 191 373 81 113 265 299 392 394 445 332
1084 566 1731 631 177 18 593 8 769 -19 434 -67 733 -206 967 -447 253 -262
374 -586 431 -1154 8 -79 13 -604 16 -1682 l4 -1568 1255 0 1254 0 0 1874 c0
1150 -4 1943 -10 2052 -60 1057 -335 1734 -883 2178 -410 331 -969 521 -1744
592 -200 18 -775 26 -953 14z"/>
<path d="M33715 28161 c88 -87 765 -754 1505 -1481 740 -727 1416 -1393 1503
-1479 l158 -157 -1661 -1634 c-913 -899 -1660 -1635 -1660 -1637 0 -2 748 -3
1663 -2 l1662 0 790 889 790 890 122 0 122 0 792 -890 792 -890 1662 0 1662 0
-331 328 c-182 181 -927 916 -1656 1633 -729 717 -1325 1309 -1325 1314 0 6
594 595 1320 1309 726 715 1471 1449 1656 1633 l336 333 -1662 0 -1662 0 -792
-890 -792 -890 -122 0 -122 0 -790 890 -790 889 -1665 0 -1665 1 160 -159z"/>
<path d="M44428 27585 c-611 -84 -1119 -531 -1284 -1132 -224 -818 268 -1672
1093 -1899 818 -224 1672 267 1899 1093 13 51 31 141 39 200 87 653 -251 1291
-842 1588 -280 140 -595 192 -905 150z m473 -443 c383 -99 677 -368 802 -733
93 -269 71 -600 -55 -854 -159 -319 -466 -549 -812 -610 -689 -120 -1316 407
-1316 1105 0 561 402 1024 965 1114 74 11 341 -3 416 -22z"/>
<path d="M44110 26050 l0 -710 150 0 150 0 0 200 0 201 132 -3 131 -3 144
-197 144 -198 185 0 c130 0 183 3 178 11 -3 6 -82 114 -174 241 l-169 230 48
38 c60 47 126 144 149 219 24 80 24 276 -1 349 -44 125 -151 236 -275 282
-107 41 -190 49 -499 50 l-293 0 0 -710z m635 395 c117 -31 159 -89 153 -211
-4 -81 -20 -112 -78 -151 -52 -36 -95 -43 -257 -43 l-153 0 0 210 0 210 138 0
c92 0 158 -5 197 -15z"/>
<path d="M17115 15895 c-25 -12 -26 -14 -5 -9 28 7 60 23 45 23 -5 0 -23 -6
-40 -14z"/>
<path d="M17022 15863 c-24 -8 -41 -17 -39 -19 4 -5 97 26 97 32 0 6 -11 4
-58 -13z"/>
<path d="M16882 15813 c-24 -8 -41 -17 -39 -19 4 -5 97 26 97 32 0 6 -11 4
-58 -13z"/>
<path d="M16428 15663 c7 -3 16 -2 19 1 4 3 -2 6 -13 5 -11 0 -14 -3 -6 -6z"/>
</g>
</svg>
